<svg xmlns="http://www.w3.org/2000/svg" viewBox="0 0 100 100" fill="none" shape-rendering="auto"><desc>"Thumbs" by "Florian Körner", licensed under "CC0 1.0". / Remix of the original. - Created with dicebear.com</desc><metadata xmlns:dc="http://purl.org/dc/elements/1.1/" xmlns:cc="http://creativecommons.org/ns#" xmlns:rdf="http://www.w3.org/1999/02/22-rdf-syntax-ns#"><rdf:RDF><cc:Work><dc:title>Thumbs</dc:title><dc:creator><cc:Agent rdf:about="https://dicebear.com"><dc:title>Florian Körner</dc:title></cc:Agent></dc:creator><dc:source>https://dicebear.com</dc:source><cc:license rdf:resource="https://creativecommons.org/publicdomain/zero/1.0/" /></cc:Work></rdf:RDF></metadata><mask id="viewboxMask"><rect width="100" height="100" rx="0" ry="0" x="0" y="0" fill="#fff" /></mask><g mask="url(#viewboxMask)"><rect fill="#0a5b83" width="100" height="100" x="0" y="0" /><g transform="translate(4, 0) rotate(17 50 70)"><path d="M95 53.33C95 29.4 74.85 10 50 10S5 29.4 5 53.33V140h90V53.33Z" fill="#f88c49"/><g transform="translate(29 33)"><g transform="translate(-5, 14) rotate(-14 21 21)"><g transform="translate(0 3)"><path d="M8.5 6C5.29 6 4 7.36 4 8.04c0 3.4 1.29 1.35 4.5 1.35S13 11.43 13 8.04C13 7.36 11.71 6 8.5 6ZM33.5 6C30.29 6 29 7.36 29 8.04c0 3.4 1.29 1.35 4.5 1.35S38 11.43 38 8.04C38 7.36 36.71 6 33.5 6Z" fill="#ffffff"/></g><g transform="translate(6 25)"><path d="M15 10C6.79 10 3.02 3.88 4.22 3.12 5.42 2.35 6.1 6.6 15 6.49c8.9-.12 9.58-4.23 10.78-3.37C26.98 3.98 23.21 10 15 10Z" fill="#ffffff"/></g></g></g></g></g></svg>