<svg xmlns="http://www.w3.org/2000/svg" viewBox="0 0 100 100" fill="none" shape-rendering="auto"><desc>"Thumbs" by "Florian Körner", licensed under "CC0 1.0". / Remix of the original. - Created with dicebear.com</desc><metadata xmlns:dc="http://purl.org/dc/elements/1.1/" xmlns:cc="http://creativecommons.org/ns#" xmlns:rdf="http://www.w3.org/1999/02/22-rdf-syntax-ns#"><rdf:RDF><cc:Work><dc:title>Thumbs</dc:title><dc:creator><cc:Agent rdf:about="https://dicebear.com"><dc:title>Florian Körner</dc:title></cc:Agent></dc:creator><dc:source>https://dicebear.com</dc:source><cc:license rdf:resource="https://creativecommons.org/publicdomain/zero/1.0/" /></cc:Work></rdf:RDF></metadata><mask id="viewboxMask"><rect width="100" height="100" rx="0" ry="0" x="0" y="0" fill="#fff" /></mask><g mask="url(#viewboxMask)"><rect fill="#69d2e7" width="100" height="100" x="0" y="0" /><g transform="translate(4, -4) rotate(1 50 70)"><path d="M95 53.33C95 29.4 74.85 10 50 10S5 29.4 5 53.33V140h90V53.33Z" fill="#f88c49"/><g transform="translate(29 33)"><g transform="translate(12, -13) rotate(-18 21 21)"><g transform="translate(0 4)"><path d="M13 8c0 2.2-1.34 4-3 4s-3-1.8-3-4 1.34-4 3-4 3 1.8 3 4ZM29.5 5C26.29 5 25 6.36 25 7.04c0 3.4 1.29 1.35 4.5 1.35S34 10.43 34 7.04C34 6.36 32.71 5 29.5 5Z" fill="#ffffff"/></g><g transform="translate(6 24)"><path d="M15.5 10c-5.07 0-9.3-5.23-8.37-5.88.93-.65 3.45 2.15 8.37 2.15 4.92 0 7.44-2.88 8.37-2.15.93.73-3.3 5.88-8.37 5.88Z" fill="#ffffff"/></g></g></g></g></g></svg>